<svg width="703" height="189" viewBox="0 0 703 189" fill="none" xmlns="http://www.w3.org/2000/svg">
<path d="M113.251 65.4061C112.486 65.4061 111.866 66.0265 111.866 66.7917V111.125C111.866 111.89 112.486 112.51 113.251 112.51H161.501C162.606 112.51 163.501 113.406 163.501 114.51V118.823C163.501 119.927 162.606 120.823 161.501 120.823H113.251C107.895 120.823 103.553 116.481 103.553 111.125V66.7917C103.553 61.4357 107.895 57.0938 113.251 57.0938H179.751C185.107 57.0938 189.449 61.4357 189.449 66.7917V84.5C189.449 85.6046 188.553 86.5 187.449 86.5H183.136C182.032 86.5 181.136 85.6046 181.136 84.5V66.7917C181.136 66.0265 180.516 65.4061 179.751 65.4061H113.251Z" fill="#232323"/>
<path d="M92.4688 133.292C92.4688 130.996 94.3295 129.135 96.6249 129.135H161.5C162.605 129.135 163.5 130.031 163.5 131.135V135.448C163.5 136.552 162.605 137.448 161.5 137.448H96.6249C94.3295 137.448 92.4688 135.587 92.4688 133.292Z" fill="#232323"/>
<path d="M190.779 135.628C190.779 134.375 189.759 133.359 188.501 133.359C187.243 133.359 186.223 134.375 186.223 135.628V135.658C186.223 136.912 187.243 137.928 188.501 137.928C189.759 137.928 190.779 136.912 190.779 135.658V135.628Z" fill="#232323"/>
<path fill-rule="evenodd" clip-rule="evenodd" d="M168 99.3205C168 94.7252 171.739 91 176.352 91H200.648C205.261 91 209 94.7252 209 99.3205V141.679C209 146.275 205.261 150 200.648 150H176.352C171.739 150 168 146.275 168 141.679V99.3205ZM176.352 95.5385C174.255 95.5385 172.556 97.2317 172.556 99.3205V141.679C172.556 143.768 174.255 145.462 176.352 145.462H200.648C202.745 145.462 204.444 143.768 204.444 141.679V99.3205C204.444 97.2317 202.745 95.5385 200.648 95.5385H193.685C193.769 95.7751 193.815 96.0296 193.815 96.2949C193.815 97.5481 192.795 98.5641 191.537 98.5641H185.463C184.205 98.5641 183.185 97.5481 183.185 96.2949C183.185 96.0296 183.231 95.7751 183.315 95.5385H176.352Z" fill="#232323"/>
<path d="M243.031 72V37.6406H254.867C257.539 37.6406 259.578 37.8047 260.984 38.1328C262.953 38.5859 264.633 39.4062 266.023 40.5938C267.836 42.125 269.188 44.0859 270.078 46.4766C270.984 48.8516 271.438 51.5703 271.438 54.6328C271.438 57.2422 271.133 59.5547 270.523 61.5703C269.914 63.5859 269.133 65.2578 268.18 66.5859C267.227 67.8984 266.18 68.9375 265.039 69.7031C263.914 70.4531 262.547 71.0234 260.938 71.4141C259.344 71.8047 257.508 72 255.43 72H243.031ZM247.578 67.9453H254.914C257.18 67.9453 258.953 67.7344 260.234 67.3125C261.531 66.8906 262.562 66.2969 263.328 65.5312C264.406 64.4531 265.242 63.0078 265.836 61.1953C266.445 59.3672 266.75 57.1562 266.75 54.5625C266.75 50.9688 266.156 48.2109 264.969 46.2891C263.797 44.3516 262.367 43.0547 260.68 42.3984C259.461 41.9297 257.5 41.6953 254.797 41.6953H247.578V67.9453ZM277.203 42.4922V37.6406H281.422V42.4922H277.203ZM277.203 72V47.1094H281.422V72H277.203ZM286.18 64.5703L290.352 63.9141C290.586 65.5859 291.234 66.8672 292.297 67.7578C293.375 68.6484 294.875 69.0938 296.797 69.0938C298.734 69.0938 300.172 68.7031 301.109 67.9219C302.047 67.125 302.516 66.1953 302.516 65.1328C302.516 64.1797 302.102 63.4297 301.273 62.8828C300.695 62.5078 299.258 62.0312 296.961 61.4531C293.867 60.6719 291.719 60 290.516 59.4375C289.328 58.8594 288.422 58.0703 287.797 57.0703C287.188 56.0547 286.883 54.9375 286.883 53.7188C286.883 52.6094 287.133 51.5859 287.633 50.6484C288.148 49.6953 288.844 48.9062 289.719 48.2812C290.375 47.7969 291.266 47.3906 292.391 47.0625C293.531 46.7188 294.75 46.5469 296.047 46.5469C298 46.5469 299.711 46.8281 301.18 47.3906C302.664 47.9531 303.758 48.7188 304.461 49.6875C305.164 50.6406 305.648 51.9219 305.914 53.5312L301.789 54.0938C301.602 52.8125 301.055 51.8125 300.148 51.0938C299.258 50.375 297.992 50.0156 296.352 50.0156C294.414 50.0156 293.031 50.3359 292.203 50.9766C291.375 51.6172 290.961 52.3672 290.961 53.2266C290.961 53.7734 291.133 54.2656 291.477 54.7031C291.82 55.1562 292.359 55.5312 293.094 55.8281C293.516 55.9844 294.758 56.3438 296.82 56.9062C299.805 57.7031 301.883 58.3594 303.055 58.875C304.242 59.375 305.172 60.1094 305.844 61.0781C306.516 62.0469 306.852 63.25 306.852 64.6875C306.852 66.0938 306.438 67.4219 305.609 68.6719C304.797 69.9062 303.617 70.8672 302.07 71.5547C300.523 72.2266 298.773 72.5625 296.82 72.5625C293.586 72.5625 291.117 71.8906 289.414 70.5469C287.727 69.2031 286.648 67.2109 286.18 64.5703ZM311.867 81.5391V47.1094H315.711V50.3438C316.617 49.0781 317.641 48.1328 318.781 47.5078C319.922 46.8672 321.305 46.5469 322.93 46.5469C325.055 46.5469 326.93 47.0938 328.555 48.1875C330.18 49.2812 331.406 50.8281 332.234 52.8281C333.062 54.8125 333.477 56.9922 333.477 59.3672C333.477 61.9141 333.016 64.2109 332.094 66.2578C331.188 68.2891 329.859 69.8516 328.109 70.9453C326.375 72.0234 324.547 72.5625 322.625 72.5625C321.219 72.5625 319.953 72.2656 318.828 71.6719C317.719 71.0781 316.805 70.3281 316.086 69.4219V81.5391H311.867ZM315.688 59.6953C315.688 62.8984 316.336 65.2656 317.633 66.7969C318.93 68.3281 320.5 69.0938 322.344 69.0938C324.219 69.0938 325.82 68.3047 327.148 66.7266C328.492 65.1328 329.164 62.6719 329.164 59.3438C329.164 56.1719 328.508 53.7969 327.195 52.2188C325.898 50.6406 324.344 49.8516 322.531 49.8516C320.734 49.8516 319.141 50.6953 317.75 52.3828C316.375 54.0547 315.688 56.4922 315.688 59.6953ZM337.016 59.5547C337.016 54.9453 338.297 51.5312 340.859 49.3125C343 47.4688 345.609 46.5469 348.688 46.5469C352.109 46.5469 354.906 47.6719 357.078 49.9219C359.25 52.1562 360.336 55.25 360.336 59.2031C360.336 62.4062 359.852 64.9297 358.883 66.7734C357.93 68.6016 356.531 70.0234 354.688 71.0391C352.859 72.0547 350.859 72.5625 348.688 72.5625C345.203 72.5625 342.383 71.4453 340.227 69.2109C338.086 66.9766 337.016 63.7578 337.016 59.5547ZM341.352 59.5547C341.352 62.7422 342.047 65.1328 343.438 66.7266C344.828 68.3047 346.578 69.0938 348.688 69.0938C350.781 69.0938 352.523 68.2969 353.914 66.7031C355.305 65.1094 356 62.6797 356 59.4141C356 56.3359 355.297 54.0078 353.891 52.4297C352.5 50.8359 350.766 50.0391 348.688 50.0391C346.578 50.0391 344.828 50.8281 343.438 52.4062C342.047 53.9844 341.352 56.3672 341.352 59.5547ZM365.305 72V47.1094H369.102V50.6484C370.93 47.9141 373.57 46.5469 377.023 46.5469C378.523 46.5469 379.898 46.8203 381.148 47.3672C382.414 47.8984 383.359 48.6016 383.984 49.4766C384.609 50.3516 385.047 51.3906 385.297 52.5938C385.453 53.375 385.531 54.7422 385.531 56.6953V72H381.312V56.8594C381.312 55.1406 381.148 53.8594 380.82 53.0156C380.492 52.1562 379.906 51.4766 379.062 50.9766C378.234 50.4609 377.258 50.2031 376.133 50.2031C374.336 50.2031 372.781 50.7734 371.469 51.9141C370.172 53.0547 369.523 55.2188 369.523 58.4062V72H365.305ZM392.047 42.4922V37.6406H396.266V42.4922H392.047ZM392.047 72V47.1094H396.266V72H392.047ZM406.602 72H402.688V37.6406H406.906V49.8984C408.688 47.6641 410.961 46.5469 413.727 46.5469C415.258 46.5469 416.703 46.8594 418.062 47.4844C419.438 48.0938 420.562 48.9609 421.438 50.0859C422.328 51.1953 423.023 52.5391 423.523 54.1172C424.023 55.6953 424.273 57.3828 424.273 59.1797C424.273 63.4453 423.219 66.7422 421.109 69.0703C419 71.3984 416.469 72.5625 413.516 72.5625C410.578 72.5625 408.273 71.3359 406.602 68.8828V72ZM406.555 59.3672C406.555 62.3516 406.961 64.5078 407.773 65.8359C409.102 68.0078 410.898 69.0938 413.164 69.0938C415.008 69.0938 416.602 68.2969 417.945 66.7031C419.289 65.0938 419.961 62.7031 419.961 59.5312C419.961 56.2812 419.312 53.8828 418.016 52.3359C416.734 50.7891 415.18 50.0156 413.352 50.0156C411.508 50.0156 409.914 50.8203 408.57 52.4297C407.227 54.0234 406.555 56.3359 406.555 59.3672ZM429.336 72V37.6406H433.555V72H429.336ZM457.156 63.9844L461.516 64.5234C460.828 67.0703 459.555 69.0469 457.695 70.4531C455.836 71.8594 453.461 72.5625 450.57 72.5625C446.93 72.5625 444.039 71.4453 441.898 69.2109C439.773 66.9609 438.711 63.8125 438.711 59.7656C438.711 55.5781 439.789 52.3281 441.945 50.0156C444.102 47.7031 446.898 46.5469 450.336 46.5469C453.664 46.5469 456.383 47.6797 458.492 49.9453C460.602 52.2109 461.656 55.3984 461.656 59.5078C461.656 59.7578 461.648 60.1328 461.633 60.6328H443.07C443.227 63.3672 444 65.4609 445.391 66.9141C446.781 68.3672 448.516 69.0938 450.594 69.0938C452.141 69.0938 453.461 68.6875 454.555 67.875C455.648 67.0625 456.516 65.7656 457.156 63.9844ZM443.305 57.1641H457.203C457.016 55.0703 456.484 53.5 455.609 52.4531C454.266 50.8281 452.523 50.0156 450.383 50.0156C448.445 50.0156 446.812 50.6641 445.484 51.9609C444.172 53.2578 443.445 54.9922 443.305 57.1641Z" fill="#232323"/>
<path d="M255.75 146L239.375 100.188H249.406L261 134.094L272.219 100.188H282.031L265.625 146H255.75ZM302.344 135.438L311.094 136.906C309.969 140.115 308.188 142.562 305.75 144.25C303.333 145.917 300.302 146.75 296.656 146.75C290.885 146.75 286.615 144.865 283.844 141.094C281.656 138.073 280.562 134.26 280.562 129.656C280.562 124.156 282 119.854 284.875 116.75C287.75 113.625 291.385 112.062 295.781 112.062C300.719 112.062 304.615 113.698 307.469 116.969C310.323 120.219 311.688 125.208 311.562 131.938H289.562C289.625 134.542 290.333 136.573 291.688 138.031C293.042 139.469 294.729 140.188 296.75 140.188C298.125 140.188 299.281 139.812 300.219 139.062C301.156 138.312 301.865 137.104 302.344 135.438ZM302.844 126.562C302.781 124.021 302.125 122.094 300.875 120.781C299.625 119.448 298.104 118.781 296.312 118.781C294.396 118.781 292.812 119.479 291.562 120.875C290.312 122.271 289.698 124.167 289.719 126.562H302.844ZM327.156 146H318.375V112.812H326.531V117.531C327.927 115.302 329.177 113.833 330.281 113.125C331.406 112.417 332.677 112.062 334.094 112.062C336.094 112.062 338.021 112.615 339.875 113.719L337.156 121.375C335.677 120.417 334.302 119.938 333.031 119.938C331.802 119.938 330.76 120.281 329.906 120.969C329.052 121.635 328.375 122.854 327.875 124.625C327.396 126.396 327.156 130.104 327.156 135.75V146ZM340.594 136.531L349.406 135.188C349.781 136.896 350.542 138.198 351.688 139.094C352.833 139.969 354.438 140.406 356.5 140.406C358.771 140.406 360.479 139.99 361.625 139.156C362.396 138.573 362.781 137.792 362.781 136.812C362.781 136.146 362.573 135.594 362.156 135.156C361.719 134.74 360.74 134.354 359.219 134C352.135 132.438 347.646 131.01 345.75 129.719C343.125 127.927 341.812 125.438 341.812 122.25C341.812 119.375 342.948 116.958 345.219 115C347.49 113.042 351.01 112.062 355.781 112.062C360.323 112.062 363.698 112.802 365.906 114.281C368.115 115.76 369.635 117.948 370.469 120.844L362.188 122.375C361.833 121.083 361.156 120.094 360.156 119.406C359.177 118.719 357.771 118.375 355.938 118.375C353.625 118.375 351.969 118.698 350.969 119.344C350.302 119.802 349.969 120.396 349.969 121.125C349.969 121.75 350.26 122.281 350.844 122.719C351.635 123.302 354.365 124.125 359.031 125.188C363.719 126.25 366.99 127.552 368.844 129.094C370.677 130.656 371.594 132.833 371.594 135.625C371.594 138.667 370.323 141.281 367.781 143.469C365.24 145.656 361.479 146.75 356.5 146.75C351.979 146.75 348.396 145.833 345.75 144C343.125 142.167 341.406 139.677 340.594 136.531ZM379.312 108.312V100.188H388.094V108.312H379.312ZM379.312 146V112.812H388.094V146H379.312ZM395.094 128.938C395.094 126.021 395.812 123.198 397.25 120.469C398.688 117.74 400.719 115.656 403.344 114.219C405.99 112.781 408.938 112.062 412.188 112.062C417.208 112.062 421.323 113.698 424.531 116.969C427.74 120.219 429.344 124.333 429.344 129.312C429.344 134.333 427.719 138.5 424.469 141.812C421.24 145.104 417.167 146.75 412.25 146.75C409.208 146.75 406.302 146.062 403.531 144.688C400.781 143.312 398.688 141.302 397.25 138.656C395.812 135.99 395.094 132.75 395.094 128.938ZM404.094 129.406C404.094 132.698 404.875 135.219 406.438 136.969C408 138.719 409.927 139.594 412.219 139.594C414.51 139.594 416.427 138.719 417.969 136.969C419.531 135.219 420.312 132.677 420.312 129.344C420.312 126.094 419.531 123.594 417.969 121.844C416.427 120.094 414.51 119.219 412.219 119.219C409.927 119.219 408 120.094 406.438 121.844C404.875 123.594 404.094 126.115 404.094 129.406ZM407.781 108.75L412.094 99.4062H421.938L413.344 108.75H407.781ZM466.438 146H457.656V129.062C457.656 125.479 457.469 123.167 457.094 122.125C456.719 121.062 456.104 120.24 455.25 119.656C454.417 119.073 453.406 118.781 452.219 118.781C450.698 118.781 449.333 119.198 448.125 120.031C446.917 120.865 446.083 121.969 445.625 123.344C445.188 124.719 444.969 127.26 444.969 130.969V146H436.188V112.812H444.344V117.688C447.24 113.938 450.885 112.062 455.281 112.062C457.219 112.062 458.99 112.417 460.594 113.125C462.198 113.812 463.406 114.698 464.219 115.781C465.052 116.865 465.625 118.094 465.938 119.469C466.271 120.844 466.438 122.812 466.438 125.375V146ZM499.75 146L488.812 100.188H498.281L505.188 131.656L513.562 100.188H524.562L532.594 132.188L539.625 100.188H548.938L537.812 146H528L518.875 111.75L509.781 146H499.75ZM571.656 135.438L580.406 136.906C579.281 140.115 577.5 142.562 575.062 144.25C572.646 145.917 569.615 146.75 565.969 146.75C560.198 146.75 555.927 144.865 553.156 141.094C550.969 138.073 549.875 134.26 549.875 129.656C549.875 124.156 551.312 119.854 554.188 116.75C557.062 113.625 560.698 112.062 565.094 112.062C570.031 112.062 573.927 113.698 576.781 116.969C579.635 120.219 581 125.208 580.875 131.938H558.875C558.938 134.542 559.646 136.573 561 138.031C562.354 139.469 564.042 140.188 566.062 140.188C567.438 140.188 568.594 139.812 569.531 139.062C570.469 138.312 571.177 137.104 571.656 135.438ZM572.156 126.562C572.094 124.021 571.438 122.094 570.188 120.781C568.938 119.448 567.417 118.781 565.625 118.781C563.708 118.781 562.125 119.479 560.875 120.875C559.625 122.271 559.01 124.167 559.031 126.562H572.156ZM587.688 146V100.188H596.469V116.688C599.177 113.604 602.385 112.062 606.094 112.062C610.135 112.062 613.479 113.531 616.125 116.469C618.771 119.385 620.094 123.583 620.094 129.062C620.094 134.729 618.74 139.094 616.031 142.156C613.344 145.219 610.073 146.75 606.219 146.75C604.323 146.75 602.448 146.281 600.594 145.344C598.76 144.385 597.177 142.979 595.844 141.125V146H587.688ZM596.406 128.688C596.406 132.125 596.948 134.667 598.031 136.312C599.552 138.646 601.573 139.812 604.094 139.812C606.031 139.812 607.677 138.99 609.031 137.344C610.406 135.677 611.094 133.062 611.094 129.5C611.094 125.708 610.406 122.979 609.031 121.312C607.656 119.625 605.896 118.781 603.75 118.781C601.646 118.781 599.896 119.604 598.5 121.25C597.104 122.875 596.406 125.354 596.406 128.688Z" fill="#232323"/>
<path fill-rule="evenodd" clip-rule="evenodd" d="M94.5 8C46.7274 8 8 46.7274 8 94.5C8 142.273 46.7274 181 94.5 181H608.5C656.273 181 695 142.273 695 94.5C695 46.7274 656.273 8 608.5 8H94.5ZM0 94.5C0 42.3091 42.3091 0 94.5 0H608.5C660.691 0 703 42.3091 703 94.5C703 146.691 660.691 189 608.5 189H94.5C42.3091 189 0 146.691 0 94.5Z" fill="#232323"/>
</svg>
